<svg xmlns="http://www.w3.org/2000/svg" xmlns:xlink="http://www.w3.org/1999/xlink" width="500" zoomAndPan="magnify" viewBox="0 0 375 374.999991" height="500" preserveAspectRatio="xMidYMid meet" version="1.0"><defs><clipPath id="b798df344a"><path d="M 185.390625 318.964844 L 189.6875 318.964844 L 189.6875 322.609375 L 185.390625 322.609375 Z M 185.390625 318.964844 " clip-rule="nonzero"/></clipPath><clipPath id="efb4ab7f12"><path d="M 189.675781 320.25 C 187.726562 323.25 185.925781 322.726562 185.550781 322.125 C 185.175781 321.449219 185.550781 319.574219 186.148438 319.125 C 186.675781 318.675781 189.074219 319.351562 189.074219 319.351562 " clip-rule="nonzero"/></clipPath></defs><rect x="-37.5" width="450" fill="#ffffff" y="-37.499999" height="449.999989" fill-opacity="1"/><rect x="-37.5" width="450" fill="#ffffff" y="-37.499999" height="449.999989" fill-opacity="1"/><path fill="#db880b" d="M 187.496094 135.300781 C 192.527344 132.425781 204.71875 123.632812 215.515625 101.632812 C 229.53125 73.0625 265.109375 48.203125 297.226562 36.308594 C 329.339844 24.417969 360.15625 15.816406 366.027344 33.1875 C 371.890625 50.554688 345.878906 112.410156 327.359375 136.28125 C 308.832031 160.148438 292 173.5 277.09375 168 C 262.1875 162.5 269.984375 146.539062 287.78125 130.445312 C 305.582031 114.359375 334.296875 83.957031 338.644531 63.445312 C 343.679688 39.6875 310.71875 51.671875 276.070312 71.847656 C 241.421875 92.023438 237.257812 134.96875 243.597656 146.722656 C 249.9375 158.480469 289.027344 174.988281 284.914062 198.144531 C 280.800781 221.296875 270.589844 247.082031 266.742188 273.277344 C 262.902344 299.476562 263.398438 313.359375 252.820312 321.828125 C 242.242188 330.296875 246.929688 340.324219 232.574219 349.902344 C 218.648438 359.191406 156.34375 359.191406 142.414062 349.902344 C 128.058594 340.324219 132.75 330.296875 122.171875 321.828125 C 111.589844 313.359375 112.089844 299.476562 108.246094 273.277344 C 104.40625 247.082031 94.195312 221.296875 90.082031 198.144531 C 85.96875 174.988281 125.054688 158.480469 131.394531 146.722656 C 137.730469 134.96875 133.566406 92.023438 98.917969 71.847656 C 64.269531 51.671875 31.308594 39.6875 36.34375 63.445312 C 40.691406 83.957031 69.410156 114.359375 87.207031 130.445312 C 105.011719 146.539062 112.804688 162.5 97.898438 168 C 82.988281 173.5 66.15625 160.148438 47.636719 136.28125 C 29.109375 112.410156 3.097656 50.554688 8.96875 33.1875 C 14.832031 15.816406 45.648438 24.417969 77.765625 36.308594 C 109.882812 48.203125 145.457031 73.0625 159.480469 101.632812 C 170.273438 123.632812 182.460938 132.425781 187.496094 135.300781 Z M 227 265.597656 C 232.425781 245.222656 203.003906 220.867188 187.089844 221.378906 C 169.007812 221.96875 142.566406 245.222656 147.988281 265.597656 C 153.410156 285.96875 155.476562 303.847656 149.953125 313.519531 C 144.429688 323.199219 140.558594 336.195312 153.652344 347.03125 C 164.453125 355.96875 180.3125 350.253906 185.523438 347.984375 C 186.625 347.503906 188.285156 347.464844 189.257812 347.890625 C 194.234375 350.089844 210.382812 356.09375 221.34375 347.03125 C 234.433594 336.195312 230.558594 323.199219 225.039062 313.519531 C 219.515625 303.847656 221.578125 285.96875 227 265.597656 Z M 187.496094 279.367188 C 189.101562 277.9375 194.539062 273.902344 202.441406 276.535156 C 211.9375 279.703125 213.269531 287.5 213.269531 287.5 C 213.269531 287.5 218.484375 298.496094 220.628906 302.34375 C 222.777344 306.195312 224.285156 316.566406 214.78125 320.933594 C 205.273438 325.296875 197.019531 320.035156 200.359375 317.695312 C 203.699219 315.355469 216.035156 308.246094 214.203125 304.878906 C 212.367188 301.515625 200.261719 312.171875 197.980469 315.304688 C 195.792969 318.316406 191.328125 327.554688 187.496094 327.179688 C 183.664062 327.554688 179.203125 318.316406 177.007812 315.304688 C 174.730469 312.171875 162.628906 301.515625 160.792969 304.878906 C 158.957031 308.246094 171.296875 315.355469 174.632812 317.695312 C 177.972656 320.035156 169.714844 325.296875 160.210938 320.933594 C 150.703125 316.566406 152.210938 306.195312 154.359375 302.34375 C 156.507812 298.496094 161.722656 287.5 161.722656 287.5 C 161.722656 287.5 163.054688 279.703125 172.554688 276.535156 C 180.453125 273.902344 185.890625 277.9375 187.496094 279.367188 Z M 111.566406 218.230469 L 106.378906 216.550781 C 106.378906 216.550781 113.824219 211.25 124.511719 213.957031 C 134.863281 216.578125 133.808594 224.859375 133.734375 225.375 L 133.730469 225.398438 C 133.730469 231.820312 128.171875 237.035156 121.332031 237.035156 C 114.484375 237.035156 108.929688 231.820312 108.929688 225.398438 C 108.929688 222.695312 109.914062 220.203125 111.566406 218.230469 Z M 263.421875 218.230469 L 268.613281 216.550781 C 268.613281 216.550781 261.164062 211.25 250.480469 213.957031 C 240.125 216.578125 241.183594 224.859375 241.261719 225.375 L 241.265625 225.398438 C 241.265625 231.820312 246.820312 237.035156 253.664062 237.035156 C 260.503906 237.035156 266.058594 231.820312 266.058594 225.398438 C 266.058594 222.695312 265.078125 220.203125 263.421875 218.230469 Z M 263.421875 218.230469 " fill-opacity="1" fill-rule="evenodd"/><g clip-path="url(#b798df344a)"><g clip-path="url(#efb4ab7f12)"><path fill="#000000" d="M 182.550781 316.125 L 192.683594 316.125 L 192.683594 325.949219 L 182.550781 325.949219 Z M 182.550781 316.125 " fill-opacity="1" fill-rule="nonzero"/></g></g></svg>